<svg xmlns="http://www.w3.org/2000/svg" width="160" height="240" viewBox="0 0 160 240">
            <g id="image-alt" transform="translate(614 -924)">
              <rect id="Rectangle_15" data-name="Rectangle 15" width="160" height="240" transform="translate(-614 924)" fill="#d6d6d6"/>
              <path id="Path_1" data-name="Path 1" d="M61.925,7.349a2.908,2.908,0,0,1,3.356-.541L93.066,29.766V55.94a5.817,5.817,0,0,1-5.817,5.817H5.819A5.817,5.817,0,0,1,0,55.94V44.307L21.209,18.982a2.908,2.908,0,0,1,3.664-.361L40.345,34.751l21.579-27.4Z" transform="translate(-581.002 1028.307)"/>
              <path id="Path_2" data-name="Path 2" d="M16.541,29.083A14.541,14.541,0,1,0,2,14.541,14.541,14.541,0,0,0,16.541,29.083Z" transform="translate(-571.379 997)" fill-rule="evenodd"/>
            </g>
          </svg>